<?xml version="1.0" standalone="no"?><svg xmlns="http://www.w3.org/2000/svg" viewBox="0 0 1440 320"><path fill="#dc3545" fill-opacity="1" d="M0,32L21.8,64C43.6,96,87,160,131,176C174.5,192,218,160,262,138.7C305.5,117,349,107,393,128C436.4,149,480,203,524,208C567.3,213,611,171,655,160C698.2,149,742,171,785,181.3C829.1,192,873,192,916,165.3C960,139,1004,85,1047,85.3C1090.9,85,1135,139,1178,149.3C1221.8,160,1265,128,1309,106.7C1352.7,85,1396,75,1418,69.3L1440,64L1440,0L1418.2,0C1396.4,0,1353,0,1309,0C1265.5,0,1222,0,1178,0C1134.5,0,1091,0,1047,0C1003.6,0,960,0,916,0C872.7,0,829,0,785,0C741.8,0,698,0,655,0C610.9,0,567,0,524,0C480,0,436,0,393,0C349.1,0,305,0,262,0C218.2,0,175,0,131,0C87.3,0,44,0,22,0L0,0Z"></path></svg>